<?xml version="1.0" encoding="utf-8"?>
<!-- Generator: Adobe Illustrator 16.0.0, SVG Export Plug-In . SVG Version: 6.00 Build 0)  -->
<svg version="1.2" baseProfile="tiny" id="Layer_1" xmlns="http://www.w3.org/2000/svg" xmlns:xlink="http://www.w3.org/1999/xlink"
	 x="0px" y="0px" width="51px" height="51px" viewBox="0 0 51 51" xml:space="preserve">
<line fill="#9A6834" stroke="#9A6834" stroke-miterlimit="10" x1="1.417" y1="24.797" x2="26.844" y2="4.584"/>
<line fill="#9A6834" stroke="#9A6834" stroke-miterlimit="10" x1="50.194" y1="23.767" x2="26.181" y2="4.584"/>
<path fill="none" stroke="#CB9731" stroke-miterlimit="10" d="M10.334,32.783c0.12-0.516,0-9.408,0-9.408l15.847-12.271L43.5,23.908
	V38"/>
<polyline fill="none" stroke="#CD6733" stroke-miterlimit="10" points="21.5,37 21.5,20.5 31.5,20.5 31.5,32 "/>
<linearGradient id="XMLID_2_" gradientUnits="userSpaceOnUse" x1="-7.3477" y1="53.0107" x2="121.5983" y2="5.863">
	<stop  offset="0" style="stop-color:#EC2C91"/>
	<stop  offset="0.2562" style="stop-color:#766AB6"/>
	<stop  offset="0.4537" style="stop-color:#2197D1"/>
	<stop  offset="0.543" style="stop-color:#00A8DC"/>
	<stop  offset="1" style="stop-color:#FDD300"/>
</linearGradient>
<path id="XMLID_13_" fill="url(#XMLID_2_)" d="M1.79,42.58c0.26-0.324,0.441-0.5,0.664-0.72c0.214-0.204,0.431-0.396,0.651-0.579
	c0.445-0.365,0.904-0.695,1.377-0.996c0.946-0.602,1.942-1.089,2.961-1.484c2.043-0.79,4.178-1.203,6.296-1.357
	c4.24-0.322,8.438,0.448,12.358,1.473c3.953,0.938,7.897,1.924,11.879,2.636c1.99,0.34,3.998,0.606,6.013,0.548
	c2.013-0.045,4.012-0.527,5.875-1.34c-1.808,0.926-3.801,1.542-5.852,1.714c-2.051,0.188-4.11,0.041-6.141-0.181
	c-4.065-0.47-8.072-1.214-12.082-1.908c-2.016-0.365-3.964-0.717-5.946-0.848c-1.974-0.141-3.95-0.115-5.876,0.145
	c-1.923,0.26-3.799,0.754-5.506,1.539c-0.854,0.395-1.665,0.857-2.402,1.394c-0.369,0.27-0.72,0.556-1.044,0.858
	c-0.16,0.15-0.316,0.307-0.46,0.462c-0.131,0.144-0.295,0.343-0.346,0.421c-0.442,0.704-1.37,0.916-2.073,0.475
	c-0.703-0.443-0.914-1.371-0.473-2.074c0.03-0.047,0.062-0.092,0.095-0.135L1.79,42.58z"/>
<linearGradient id="XMLID_3_" gradientUnits="userSpaceOnUse" x1="-6.0464" y1="56.5762" x2="122.9066" y2="9.4259">
	<stop  offset="0" style="stop-color:#EC2C91"/>
	<stop  offset="0.2562" style="stop-color:#766AB6"/>
	<stop  offset="0.4537" style="stop-color:#2197D1"/>
	<stop  offset="0.543" style="stop-color:#00A8DC"/>
	<stop  offset="1" style="stop-color:#FDD300"/>
</linearGradient>
<path id="XMLID_12_" fill="url(#XMLID_3_)" d="M49.96,39.816c-0.82,0.422-1.564,0.646-2.361,0.861
	c-0.789,0.202-1.581,0.348-2.377,0.443c-1.594,0.195-3.183,0.215-4.769,0.092c-1.58-0.137-3.126-0.434-4.649-0.791
	c-1.524-0.365-3.027-0.794-4.507-1.295c1.514,0.385,3.041,0.691,4.577,0.932c1.535,0.238,3.08,0.406,4.613,0.419
	c1.529-0.003,3.069-0.153,4.555-0.459c0.742-0.153,1.473-0.349,2.18-0.595c0.69-0.24,1.421-0.551,1.961-0.891l0.033-0.021
	c0.352-0.221,0.815-0.115,1.036,0.236c0.222,0.352,0.116,0.814-0.234,1.035C49.998,39.795,49.979,39.808,49.96,39.816z"/>
</svg>
