<?xml version="1.0" encoding="utf-8"?>
<!-- Generator: Adobe Illustrator 16.0.0, SVG Export Plug-In . SVG Version: 6.00 Build 0)  -->
<svg version="1.2" baseProfile="tiny" id="Layer_1" xmlns="http://www.w3.org/2000/svg" xmlns:xlink="http://www.w3.org/1999/xlink"
	 x="0px" y="0px" width="512px" height="512px" viewBox="0 0 512 512" xml:space="preserve">
<line fill="none" x1="147.874" y1="72.405" x2="146.974" y2="65.209"/>
<line fill="#9A6834" stroke="#9A6834" stroke-width="9" stroke-miterlimit="10" x1="8.656" y1="257.869" x2="267.137" y2="52.391"/>
<line fill="#9A6834" stroke="#9A6834" stroke-width="9" stroke-miterlimit="10" x1="504.514" y1="247.396" x2="260.396" y2="52.391"/>
<path fill="none" stroke="#CB9731" stroke-width="9" stroke-miterlimit="10" d="M98.955,338.153
	c1.219-5.238,0.358-94.258,0.358-94.258L260.42,118.916L436.5,248.834V394"/>
<polyline fill="none" stroke="#CD6733" stroke-width="9" stroke-miterlimit="10" points="212.5,383 212.5,212.5 314.5,212.5 
	314.5,334 "/>
<linearGradient id="XMLID_2_" gradientUnits="userSpaceOnUse" x1="-80.436" y1="544.6729" x2="1230.3784" y2="65.3875">
	<stop  offset="0" style="stop-color:#EC2C91"/>
	<stop  offset="0.2562" style="stop-color:#766AB6"/>
	<stop  offset="0.4537" style="stop-color:#2197D1"/>
	<stop  offset="0.543" style="stop-color:#00A8DC"/>
	<stop  offset="1" style="stop-color:#FDD300"/>
</linearGradient>
<path id="XMLID_14_" fill="url(#XMLID_2_)" d="M12.449,438.648c2.642-3.297,4.487-5.088,6.751-7.316
	c2.174-2.076,4.378-4.033,6.623-5.889c4.525-3.715,9.194-7.066,13.997-10.125c9.621-6.119,19.746-11.068,30.101-15.09
	c20.767-8.033,42.469-12.229,64.002-13.799c43.104-3.279,85.772,4.557,125.631,14.969c40.187,9.533,80.283,19.561,120.756,26.797
	c20.234,3.453,40.645,6.162,61.125,5.566c20.458-0.455,40.78-5.361,59.723-13.619c-18.375,9.41-38.637,15.676-59.484,17.42
	c-20.848,1.908-41.785,0.422-62.424-1.834c-41.328-4.775-82.062-12.34-122.821-19.398c-20.492-3.713-40.297-7.287-60.449-8.617
	c-20.064-1.428-40.156-1.17-59.732,1.469c-19.547,2.643-38.617,7.666-55.972,15.646c-8.676,4.01-16.925,8.715-24.423,14.166
	c-3.75,2.742-7.315,5.646-10.61,8.725c-1.628,1.529-3.216,3.117-4.676,4.697c-1.331,1.459-2.997,3.486-3.515,4.279
	c-4.495,7.158-13.927,9.309-21.076,4.822c-7.147-4.506-9.292-13.936-4.804-21.082c0.307-0.48,0.626-0.934,0.962-1.371
	L12.449,438.648z"/>
<linearGradient id="XMLID_3_" gradientUnits="userSpaceOnUse" x1="-67.2153" y1="580.917" x2="1243.6741" y2="101.6042">
	<stop  offset="0" style="stop-color:#EC2C91"/>
	<stop  offset="0.2562" style="stop-color:#766AB6"/>
	<stop  offset="0.4537" style="stop-color:#2197D1"/>
	<stop  offset="0.543" style="stop-color:#00A8DC"/>
	<stop  offset="1" style="stop-color:#FDD300"/>
</linearGradient>
<path id="XMLID_11_" fill="url(#XMLID_3_)" d="M502.127,410.555c-8.337,4.285-15.9,6.572-24.001,8.754
	c-8.023,2.057-16.073,3.531-24.165,4.508c-16.202,1.984-32.354,2.182-48.476,0.932c-16.061-1.391-31.776-4.406-47.263-8.041
	c-15.498-3.713-30.775-8.072-45.817-13.164c15.39,3.912,30.915,7.029,46.531,9.473c15.606,2.422,31.312,4.127,46.896,4.26
	c15.546-0.033,31.202-1.561,46.302-4.668c7.545-1.559,14.971-3.545,22.158-6.049c7.018-2.439,14.445-5.598,19.934-9.051l0.338-0.219
	c3.574-2.242,8.29-1.172,10.533,2.402c2.254,3.572,1.182,8.279-2.383,10.525C502.516,410.332,502.328,410.465,502.127,410.555z"/>
</svg>
