<?xml version="1.0" encoding="utf-8"?>
<!-- Generator: Adobe Illustrator 16.0.0, SVG Export Plug-In . SVG Version: 6.00 Build 0)  -->
<svg version="1.2" baseProfile="tiny" id="Layer_1" xmlns="http://www.w3.org/2000/svg" xmlns:xlink="http://www.w3.org/1999/xlink"
	 x="0px" y="0px" width="192px" height="192px" viewBox="0 0 192 192" xml:space="preserve">
<line fill="none" x1="55.333" y1="28" x2="55" y2="25.333"/>
<line fill="#9A6834" stroke="#9A6834" stroke-width="5" stroke-miterlimit="10" x1="3.747" y1="96.724" x2="99.526" y2="20.584"/>
<line fill="#9A6834" stroke="#9A6834" stroke-width="5" stroke-miterlimit="10" x1="187.486" y1="92.843" x2="97.029" y2="20.584"/>
<path fill="none" stroke="#CB9731" stroke-width="5" stroke-miterlimit="10" d="M37.394,126.688c0.452-1.941,0-35.184,0-35.184
	l59.779-46.29L162.5,93.376V147"/>
<polyline fill="none" stroke="#CD6733" stroke-width="5" stroke-miterlimit="10" points="79.5,143 79.5,79.5 117.5,79.5 117.5,125 
	"/>
<linearGradient id="XMLID_2_" gradientUnits="userSpaceOnUse" x1="-29.2666" y1="202.999" x2="456.4554" y2="25.4">
	<stop  offset="0" style="stop-color:#EC2C91"/>
	<stop  offset="0.2562" style="stop-color:#766AB6"/>
	<stop  offset="0.4537" style="stop-color:#2197D1"/>
	<stop  offset="0.543" style="stop-color:#00A8DC"/>
	<stop  offset="1" style="stop-color:#FDD300"/>
</linearGradient>
<path id="XMLID_10_" fill="url(#XMLID_2_)" d="M5.152,163.711c0.979-1.222,1.663-1.885,2.501-2.711
	c0.806-0.77,1.623-1.494,2.454-2.182c1.677-1.377,3.407-2.619,5.187-3.752c3.565-2.268,7.317-4.102,11.154-5.592
	c7.695-2.977,15.737-4.531,23.716-5.113c15.972-1.215,31.783,1.688,46.552,5.547c14.892,3.532,29.749,7.248,44.746,9.93
	c7.497,1.279,15.061,2.283,22.649,2.063c7.581-0.169,15.111-1.986,22.131-5.047c-6.809,3.487-14.317,5.809-22.043,6.455
	c-7.725,0.707-15.482,0.156-23.131-0.68c-15.313-1.77-30.407-4.572-45.511-7.188c-7.593-1.376-14.932-2.7-22.399-3.193
	c-7.435-0.529-14.88-0.434-22.134,0.544c-7.243,0.979-14.31,2.841-20.74,5.798c-3.215,1.486-6.271,3.229-9.05,5.249
	c-1.39,1.017-2.71,2.093-3.932,3.233c-0.604,0.566-1.192,1.155-1.733,1.74c-0.493,0.541-1.11,1.292-1.302,1.586
	c-1.666,2.652-5.161,3.449-7.81,1.787c-2.648-1.67-3.443-5.164-1.78-7.813c0.114-0.178,0.232-0.346,0.356-0.508L5.152,163.711z"/>
<linearGradient id="XMLID_3_" gradientUnits="userSpaceOnUse" x1="-24.3677" y1="216.4297" x2="461.3819" y2="38.8206">
	<stop  offset="0" style="stop-color:#EC2C91"/>
	<stop  offset="0.2562" style="stop-color:#766AB6"/>
	<stop  offset="0.4537" style="stop-color:#2197D1"/>
	<stop  offset="0.543" style="stop-color:#00A8DC"/>
	<stop  offset="1" style="stop-color:#FDD300"/>
</linearGradient>
<path id="XMLID_9_" fill="url(#XMLID_3_)" d="M186.602,153.301c-3.09,1.588-5.893,2.436-8.894,3.244
	c-2.974,0.762-5.956,1.309-8.954,1.67c-6.004,0.735-11.988,0.809-17.963,0.346c-5.951-0.516-11.775-1.633-17.514-2.979
	c-5.742-1.376-11.403-2.991-16.977-4.878c5.702,1.449,11.455,2.604,17.242,3.51c5.782,0.897,11.602,1.529,17.377,1.578
	c5.76-0.012,11.563-0.578,17.156-1.729c2.797-0.577,5.548-1.313,8.211-2.241c2.601-0.904,5.354-2.074,7.387-3.354l0.125-0.081
	c1.324-0.831,3.072-0.435,3.903,0.89c0.835,1.324,0.438,3.068-0.883,3.9C186.746,153.219,186.676,153.268,186.602,153.301z"/>
</svg>
